<svg width="127" height="19" viewBox="0 0 127 19" fill="none" xmlns="http://www.w3.org/2000/svg">
<g clip-path="url(#clip0_1_172)">
<path d="M34.08 16H36.12V11.5H40.875V16H42.93V4.825H40.875V9.7H36.12V4.825H34.08V16ZM44.916 6.925H46.881V4.825H44.916V6.925ZM44.916 16H46.881V7.84H44.916V16ZM52.4903 16.18C53.0203 16.18 53.5103 16.09 53.9603 15.91C54.4103 15.72 54.7853 15.45 55.0853 15.1V16H56.9453V4.645H54.9803V8.665C54.3703 7.995 53.5353 7.66 52.4753 7.66C51.7053 7.66 51.0053 7.85 50.3753 8.23C49.7553 8.6 49.2653 9.11 48.9053 9.76C48.5453 10.4 48.3653 11.12 48.3653 11.92C48.3653 12.72 48.5453 13.445 48.9053 14.095C49.2653 14.735 49.7553 15.245 50.3753 15.625C50.9953 15.995 51.7003 16.18 52.4903 16.18ZM52.7003 14.38C52.2603 14.38 51.8653 14.275 51.5153 14.065C51.1653 13.855 50.8903 13.565 50.6903 13.195C50.5003 12.815 50.4053 12.39 50.4053 11.92C50.4053 11.45 50.5003 11.03 50.6903 10.66C50.8903 10.29 51.1653 10 51.5153 9.79C51.8653 9.57 52.2603 9.46 52.7003 9.46C53.1403 9.46 53.5303 9.565 53.8703 9.775C54.2203 9.985 54.4903 10.275 54.6803 10.645C54.8803 11.015 54.9803 11.44 54.9803 11.92C54.9803 12.4 54.8803 12.825 54.6803 13.195C54.4903 13.565 54.2203 13.855 53.8703 14.065C53.5303 14.275 53.1403 14.38 52.7003 14.38ZM62.6434 16.18C63.4734 16.18 64.1984 15.995 64.8184 15.625C65.4484 15.245 65.8884 14.765 66.1384 14.185L64.5484 13.405C64.3684 13.715 64.1184 13.97 63.7984 14.17C63.4884 14.36 63.1084 14.455 62.6584 14.455C62.0684 14.455 61.5734 14.275 61.1734 13.915C60.7734 13.555 60.5434 13.075 60.4834 12.475H66.3634C66.4034 12.365 66.4284 12.24 66.4384 12.1C66.4584 11.95 66.4684 11.8 66.4684 11.65C66.4684 10.92 66.3134 10.255 66.0034 9.655C65.6934 9.055 65.2434 8.575 64.6534 8.215C64.0634 7.845 63.3434 7.66 62.4934 7.66C61.7334 7.66 61.0434 7.845 60.4234 8.215C59.8134 8.585 59.3284 9.09 58.9684 9.73C58.6184 10.36 58.4434 11.085 58.4434 11.905C58.4434 12.695 58.6184 13.415 58.9684 14.065C59.3184 14.715 59.8084 15.23 60.4384 15.61C61.0684 15.99 61.8034 16.18 62.6434 16.18ZM62.4934 9.28C63.0134 9.28 63.4434 9.44 63.7834 9.76C64.1334 10.07 64.3284 10.475 64.3684 10.975H60.5284C60.6384 10.435 60.8684 10.02 61.2184 9.73C61.5784 9.43 62.0034 9.28 62.4934 9.28ZM74.779 16.18C75.549 16.18 76.224 16.04 76.804 15.76C77.384 15.48 77.839 15.095 78.169 14.605C78.499 14.115 78.664 13.55 78.664 12.91C78.664 11.42 77.774 10.39 75.994 9.82L73.939 9.175C73.539 9.045 73.234 8.865 73.024 8.635C72.824 8.395 72.724 8.12 72.724 7.81C72.724 7.4 72.879 7.07 73.189 6.82C73.509 6.56 73.929 6.43 74.449 6.43C75.029 6.43 75.539 6.585 75.979 6.895C76.419 7.195 76.749 7.625 76.969 8.185L78.649 7.435C78.349 6.595 77.824 5.92 77.074 5.41C76.334 4.9 75.459 4.645 74.449 4.645C73.719 4.645 73.069 4.785 72.499 5.065C71.939 5.335 71.499 5.715 71.179 6.205C70.869 6.695 70.714 7.26 70.714 7.9C70.714 8.63 70.934 9.265 71.374 9.805C71.814 10.335 72.469 10.74 73.339 11.02L75.484 11.71C75.874 11.84 76.164 12.01 76.354 12.22C76.554 12.43 76.654 12.7 76.654 13.03C76.654 13.44 76.489 13.77 76.159 14.02C75.839 14.27 75.414 14.395 74.884 14.395C74.244 14.395 73.669 14.215 73.159 13.855C72.649 13.485 72.259 12.98 71.989 12.34L70.294 13.075C70.494 13.695 70.809 14.24 71.239 14.71C71.679 15.17 72.199 15.53 72.799 15.79C73.409 16.05 74.069 16.18 74.779 16.18ZM80.3359 6.925H82.3009V4.825H80.3359V6.925ZM80.3359 16H82.3009V7.84H80.3359V16ZM87.9102 16.18C88.4402 16.18 88.9302 16.09 89.3802 15.91C89.8302 15.72 90.2052 15.45 90.5052 15.1V16H92.3652V4.645H90.4002V8.665C89.7902 7.995 88.9552 7.66 87.8952 7.66C87.1252 7.66 86.4252 7.85 85.7952 8.23C85.1752 8.6 84.6852 9.11 84.3252 9.76C83.9652 10.4 83.7852 11.12 83.7852 11.92C83.7852 12.72 83.9652 13.445 84.3252 14.095C84.6852 14.735 85.1752 15.245 85.7952 15.625C86.4152 15.995 87.1202 16.18 87.9102 16.18ZM88.1202 14.38C87.6802 14.38 87.2852 14.275 86.9352 14.065C86.5852 13.855 86.3102 13.565 86.1102 13.195C85.9202 12.815 85.8252 12.39 85.8252 11.92C85.8252 11.45 85.9202 11.03 86.1102 10.66C86.3102 10.29 86.5852 10 86.9352 9.79C87.2852 9.57 87.6802 9.46 88.1202 9.46C88.5602 9.46 88.9502 9.565 89.2902 9.775C89.6402 9.985 89.9102 10.275 90.1002 10.645C90.3002 11.015 90.4002 11.44 90.4002 11.92C90.4002 12.4 90.3002 12.825 90.1002 13.195C89.9102 13.565 89.6402 13.855 89.2902 14.065C88.9502 14.275 88.5602 14.38 88.1202 14.38ZM98.0633 16.18C98.8933 16.18 99.6183 15.995 100.238 15.625C100.868 15.245 101.308 14.765 101.558 14.185L99.9683 13.405C99.7883 13.715 99.5383 13.97 99.2183 14.17C98.9083 14.36 98.5283 14.455 98.0783 14.455C97.4883 14.455 96.9933 14.275 96.5933 13.915C96.1933 13.555 95.9633 13.075 95.9033 12.475H101.783C101.823 12.365 101.848 12.24 101.858 12.1C101.878 11.95 101.888 11.8 101.888 11.65C101.888 10.92 101.733 10.255 101.423 9.655C101.113 9.055 100.663 8.575 100.073 8.215C99.4833 7.845 98.7633 7.66 97.9133 7.66C97.1533 7.66 96.4633 7.845 95.8433 8.215C95.2333 8.585 94.7483 9.09 94.3883 9.73C94.0383 10.36 93.8633 11.085 93.8633 11.905C93.8633 12.695 94.0383 13.415 94.3883 14.065C94.7383 14.715 95.2283 15.23 95.8583 15.61C96.4883 15.99 97.2233 16.18 98.0633 16.18ZM97.9133 9.28C98.4333 9.28 98.8633 9.44 99.2033 9.76C99.5533 10.07 99.7483 10.475 99.7883 10.975H95.9483C96.0583 10.435 96.2883 10.02 96.6383 9.73C96.9983 9.43 97.4233 9.28 97.9133 9.28ZM107.833 16.18C108.623 16.18 109.328 15.995 109.948 15.625C110.568 15.245 111.058 14.735 111.418 14.095C111.778 13.445 111.958 12.72 111.958 11.92C111.958 11.12 111.778 10.4 111.418 9.76C111.058 9.11 110.568 8.6 109.948 8.23C109.328 7.85 108.628 7.66 107.848 7.66C106.788 7.66 105.953 7.995 105.343 8.665V4.645H103.378V16H105.223V15.085C105.523 15.435 105.898 15.705 106.348 15.895C106.808 16.085 107.303 16.18 107.833 16.18ZM107.608 14.38C107.178 14.38 106.788 14.275 106.438 14.065C106.098 13.855 105.828 13.565 105.628 13.195C105.438 12.825 105.343 12.4 105.343 11.92C105.343 11.44 105.438 11.015 105.628 10.645C105.828 10.275 106.098 9.985 106.438 9.775C106.788 9.565 107.178 9.46 107.608 9.46C108.058 9.46 108.453 9.57 108.793 9.79C109.143 10 109.418 10.29 109.618 10.66C109.818 11.03 109.918 11.45 109.918 11.92C109.918 12.39 109.818 12.815 109.618 13.195C109.418 13.565 109.143 13.855 108.793 14.065C108.453 14.275 108.058 14.38 107.608 14.38ZM115.931 16.18C116.991 16.18 117.841 15.83 118.481 15.13V16H120.341V10.57C120.341 10 120.196 9.495 119.906 9.055C119.616 8.615 119.216 8.275 118.706 8.035C118.206 7.785 117.621 7.66 116.951 7.66C116.131 7.66 115.401 7.855 114.761 8.245C114.121 8.635 113.681 9.15 113.441 9.79L115.046 10.57C115.196 10.2 115.431 9.905 115.751 9.685C116.071 9.455 116.446 9.34 116.876 9.34C117.326 9.34 117.686 9.46 117.956 9.7C118.236 9.93 118.376 10.22 118.376 10.57V10.84L115.946 11.23C114.986 11.39 114.276 11.695 113.816 12.145C113.356 12.595 113.126 13.16 113.126 13.84C113.126 14.56 113.381 15.13 113.891 15.55C114.401 15.97 115.081 16.18 115.931 16.18ZM115.166 13.765C115.166 13.195 115.551 12.835 116.321 12.685L118.376 12.34V12.67C118.376 13.23 118.181 13.705 117.791 14.095C117.411 14.485 116.911 14.68 116.291 14.68C115.961 14.68 115.691 14.6 115.481 14.44C115.271 14.27 115.166 14.045 115.166 13.765ZM122.157 16H124.122V11.455C124.122 10.835 124.292 10.355 124.632 10.015C124.982 9.665 125.432 9.49 125.982 9.49H126.687V7.75H126.207C125.707 7.75 125.267 7.84 124.887 8.02C124.507 8.2 124.212 8.525 124.002 8.995V7.84H122.157V16Z" fill="#828FA3"/>
<path fill-rule="evenodd" clip-rule="evenodd" d="M17.7923 10.7615C16.7538 12.5238 15.1854 13.941 13.3062 14.8081L14.8099 16.9563C14.9286 17.1259 14.8874 17.3598 14.7177 17.4785L14.0697 17.9322C13.9 18.051 13.6662 18.0097 13.5474 17.84L3.19013 3.04373C3.07135 2.87407 3.11263 2.64023 3.28229 2.52148L3.93032 2.06783C4.09998 1.94904 4.33382 1.99033 4.45257 2.15998L6.18775 4.63888C7.08163 4.38573 8.02525 4.25001 9 4.25001C12.7456 4.25001 16.0311 6.24982 17.7923 9.23847C18.0692 9.7084 18.0692 10.2916 17.7923 10.7615ZM1.50001 10C2.99714 12.5406 5.79513 14.25 9 14.25C9.07946 14.2499 9.15892 14.2487 9.23834 14.2465L10.239 15.676C9.82784 15.7253 9.4141 15.75 9 15.75C5.25438 15.75 1.96889 13.7502 0.207702 10.7616C-0.069234 10.2916 -0.069234 9.7084 0.207702 9.23847C0.997544 7.89816 2.09379 6.75732 3.4001 5.90623L4.26076 7.13569C3.12813 7.86432 2.17986 8.84635 1.50001 10ZM8.52194 13.2231C6.00685 12.9415 4.26532 10.5079 4.86788 8.00303L8.52194 13.2231ZM9.74494 5.78104C12.6351 6.02282 15.1201 7.65835 16.5 10C15.5721 11.5746 14.1446 12.8297 12.4302 13.5566L11.596 12.3649C13.2731 11.0693 13.7072 8.7886 12.75 6.99869L12.75 7C12.75 7.9665 11.9665 8.75 11 8.75C10.0335 8.75 9.25 7.9665 9.25 7C9.25 6.52594 9.43881 6.09619 9.74494 5.78104Z" fill="#828FA3"/>
</g>
<defs>
<clipPath id="clip0_1_172">
<rect width="127" height="19" fill="white"/>
</clipPath>
</defs>
</svg>
